<?xml version="1.0" encoding="utf-8"?>
<!-- Generator: Adobe Illustrator 27.5.0, SVG Export Plug-In . SVG Version: 6.00 Build 0)  -->
<svg version="1.1" xmlns="http://www.w3.org/2000/svg" xmlns:xlink="http://www.w3.org/1999/xlink" x="0px" y="0px"
	 viewBox="0 0 750 500" style="enable-background:new 0 0 750 500;" xml:space="preserve">
<g id="BACKGROUND">
	<path style="fill:#FAEEE8;" d="M218.562,452.318c0,0-167.535,14.696-165.575-161.656
		c1.959-176.352,204.859-101.587,277.265-179.291C450.759-17.954,606.429,10.338,666.256,170.919
		C728.024,336.71,514.442,490.528,218.562,452.318z"/>
</g>
<g id="OBJECTS">
	<g>
		<g>
			<g>
				<g>
					<g>
						<path style="fill:#FF6666;" d="M158.438,365.122c0,0-14.043-83.931-44.415-68.582
							C83.651,311.89,146.028,357.937,158.438,365.122z"/>
						<path style="fill:#FF6666;" d="M175.746,368.714c0,0-38.21-44.741-14.043-55.192
							C185.87,303.072,175.746,368.714,175.746,368.714z"/>
						<path style="fill:#FF6666;" d="M185.866,397.793c0,0-34.502-37.365-47.182-19.795
							C126.004,395.568,185.866,397.793,185.866,397.793z"/>
					</g>
					<g>
						<path style="fill:none;stroke:#FF5640;stroke-width:1.9595;stroke-miterlimit:10;" d="M119.575,309.277
							c0,0,51.926,98.953,126.386,111.69"/>
						<path style="fill:none;stroke:#FF5640;stroke-width:1.9595;stroke-miterlimit:10;" d="M165.949,328.872
							c0,0,8.818,16.329,11.43,54.865"/>
						<path style="fill:none;stroke:#FF5640;stroke-width:1.7715;stroke-miterlimit:10;" d="M151.758,383.773
							c0,0,13.308,9.562,47.256,17.668"/>
					</g>
				</g>
				<g>
					<path style="fill:none;stroke:#FF5640;stroke-width:1.9595;stroke-miterlimit:10;" d="M129.361,388.882
						c0,0,26.779,57.612,98.525,30.523"/>
					<g>
						<path style="fill:#FF5640;" d="M137.034,401.849c0,0,7.207-10.27-12.456-21.14
							C124.578,380.709,118.148,398.129,137.034,401.849z"/>
						<g>
							<path style="fill:#FF5640;" d="M148.793,411.907c0,0-8.946-6.963-1.393-16.928C147.4,394.979,156.082,402.94,148.793,411.907
								z"/>
							<path style="fill:#FF5640;" d="M147.555,412.607c0,0-8.384,8.874-18.29-0.248
								C129.264,412.359,138.692,403.871,147.555,412.607z"/>
						</g>
						<g>
							<path style="fill:#FF5640;" d="M165.88,421.514c0,0-9.77-5.75-3.566-16.607C162.314,404.908,171.951,411.682,165.88,421.514z
								"/>
							<path style="fill:#FF5640;" d="M164.743,422.368c0,0-7.169,9.882-18.169,2.115
								C146.574,424.483,154.826,414.849,164.743,422.368z"/>
						</g>
						<g>
							<path style="fill:#FF5640;" d="M185.27,425.513c0,0-11.152-2.035-9.065-14.364
								C176.204,411.149,187.584,414.191,185.27,425.513z"/>
							<path style="fill:#FF5640;" d="M184.495,426.706c0,0-3.329,11.746-16.33,8.241
								C168.165,434.946,172.597,423.06,184.495,426.706z"/>
						</g>
						<g>
							<path style="fill:#FF5640;" d="M206.946,425.06c0,0-11.295,0.972-12.526-11.471
								C194.42,413.589,206.199,413.529,206.946,425.06z"/>
							<path style="fill:#FF5640;" d="M206.513,426.415c0,0-0.119,12.208-13.585,12.248
								C192.927,438.664,194.074,426.03,206.513,426.415z"/>
						</g>
					</g>
				</g>
				<g>
					<path style="fill:none;stroke:#FF5640;stroke-width:1.9595;stroke-miterlimit:10;" d="M182.278,255.392
						c0,0-20.492,60.136,50.07,90.177"/>
					<g>
						<path style="fill:#FF5640;" d="M178.855,270.065c0,0,12.308-2.436,5.619-23.885
							C184.474,246.18,167.783,254.319,178.855,270.065z"/>
						<g>
							<path style="fill:#FF5640;" d="M180.394,285.462c0,0-1.648-11.216,10.699-13.192
								C191.093,272.27,191.86,284.024,180.394,285.462z"/>
							<path style="fill:#FF5640;" d="M179.016,285.111c0,0-12.193,0.613-13.042-12.826
								C165.974,272.285,178.654,272.672,179.016,285.111z"/>
						</g>
						<g>
							<path style="fill:#FF5640;" d="M186.095,304.218c0,0-3.082-10.91,8.907-14.463
								C195.002,289.755,197.279,301.312,186.095,304.218z"/>
							<path style="fill:#FF5640;" d="M184.683,304.047c0,0-12.012,2.182-14.588-11.035
								C170.095,293.012,182.718,291.759,184.683,304.047z"/>
						</g>
						<g>
							<path style="fill:#FF5640;" d="M197.337,320.513c0,0-6.649-9.182,3.383-16.645
								C200.721,303.868,206.838,313.935,197.337,320.513z"/>
							<path style="fill:#FF5640;" d="M195.953,320.839c0,0-10.527,6.184-17.495-5.339
								C178.458,315.5,189.878,309.978,195.953,320.839z"/>
						</g>
						<g>
							<path style="fill:#FF5640;" d="M213.309,335.175c0,0-8.832-7.108-1.117-16.948
								C212.192,318.226,220.743,326.328,213.309,335.175z"/>
							<path style="fill:#FF5640;" d="M212.059,335.854c0,0-8.528,8.737-18.284-0.546
								C193.776,335.309,203.34,326.975,212.059,335.854z"/>
						</g>
					</g>
				</g>
				<g>
					<path style="fill:none;stroke:#FF5640;stroke-width:1.9595;stroke-miterlimit:10;" d="M191.566,352.828
						c0,0,12.228,62.344,88.37,53.194"/>
					<g>
						<path style="fill:#FF5640;" d="M195.917,367.253c0,0,9.453-8.249-7.041-23.505
							C188.876,343.748,178.468,359.126,195.917,367.253z"/>
						<g>
							<path style="fill:#FF5640;" d="M204.93,379.831c0,0-7.022-8.9,2.695-16.77C207.624,363.061,214.151,372.867,204.93,379.831z"
								/>
							<path style="fill:#FF5640;" d="M203.56,380.214c0,0-10.263,6.612-17.7-4.614C185.859,375.6,197.043,369.612,203.56,380.214z"
								/>
						</g>
						<g>
							<path style="fill:#FF5640;" d="M219.224,393.245c0,0-8.112-7.919,0.508-16.978
								C219.732,376.267,227.47,385.149,219.224,393.245z"/>
							<path style="fill:#FF5640;" d="M217.915,393.802c0,0-9.324,7.882-18.148-2.29
								C199.768,391.512,210.085,384.13,217.915,393.802z"/>
						</g>
						<g>
							<path style="fill:#FF5640;" d="M237.095,401.763c0,0-10.342-4.643-5.368-16.115
								C231.727,385.648,242.05,391.324,237.095,401.763z"/>
							<path style="fill:#FF5640;" d="M236.058,402.737c0,0-6.041,10.609-17.827,4.097
								C218.231,406.834,225.376,396.352,236.058,402.737z"/>
						</g>
						<g>
							<path style="fill:#FF5640;" d="M258.251,406.507c0,0-11.2-1.757-9.42-14.133
								C248.831,392.373,260.283,395.131,258.251,406.507z"/>
							<path style="fill:#FF5640;" d="M257.507,407.719c0,0-3.035,11.825-16.12,8.645
								C241.387,416.364,245.521,404.371,257.507,407.719z"/>
						</g>
					</g>
				</g>
				<g>
					<path style="fill:none;stroke:#FF5640;stroke-width:1.9595;stroke-miterlimit:10;" d="M379.044,317.66
						c0,0,17.2,61.159-54.887,87.329"/>
					<g>
						<path style="fill:#FF5640;" d="M381.666,332.497c0,0-12.158-3.1-4.315-24.155
							C377.351,308.343,393.575,317.375,381.666,332.497z"/>
						<g>
							<path style="fill:#FF5640;" d="M379.293,347.788c0,0,2.254-11.11-9.968-13.753
								C369.326,334.035,367.923,345.731,379.293,347.788z"/>
							<path style="fill:#FF5640;" d="M380.689,347.513c0,0,12.142,1.274,13.718-12.1
								C394.407,335.413,381.725,335.111,380.689,347.513z"/>
						</g>
						<g>
							<path style="fill:#FF5640;" d="M372.584,366.207c0,0,3.669-10.726-8.109-14.925
								C364.475,351.283,361.574,362.699,372.584,366.207z"/>
							<path style="fill:#FF5640;" d="M374.003,366.114c0,0,11.876,2.83,15.165-10.228
								C389.168,355.886,376.631,353.95,374.003,366.114z"/>
						</g>
						<g>
							<path style="fill:#FF5640;" d="M360.474,381.869c0,0,7.138-8.808-2.476-16.804
								C357.999,365.065,351.345,374.785,360.474,381.869z"/>
							<path style="fill:#FF5640;" d="M361.839,382.27c0,0,10.176,6.746,17.759-4.382
								C379.598,377.888,368.494,371.754,361.839,382.27z"/>
						</g>
						<g>
							<path style="fill:#FF5640;" d="M343.731,395.643c0,0,9.204-6.618,2.035-16.863
								C345.766,378.78,336.788,386.406,343.731,395.643z"/>
							<path style="fill:#FF5640;" d="M344.942,396.389c0,0,8.041,9.186,18.286,0.447
								C363.228,396.836,354.13,387.996,344.942,396.389z"/>
						</g>
					</g>
				</g>
			</g>
			<path style="fill:#001433;" d="M272.59,446.277c0.798,5.352-2.893,10.337-8.245,11.135l-28.102,4.191
				c-5.352,0.798-10.337-2.893-11.135-8.245l-14.595-97.871c-0.798-5.352,2.893-10.337,8.245-11.135l28.102-4.191
				c5.352-0.798,10.337,2.893,11.135,8.245L272.59,446.277z"/>
		</g>
		<g>
			<g>
				<g>
					<path style="fill:#000A19;" d="M292.988,160.559c0,0,37.059-23.144,58.637,11.069c21.578,34.213,29.553,121.759-3.284,127.797
						c-32.837,6.038-55.822,1.509-51.6-48.301C300.962,201.313,292.988,160.559,292.988,160.559z"/>
					<g>
						<g>
							<path style="fill:#FFB199;" d="M313.072,255.882c0,0-8.328,23.514,6.368,27.433c14.696,3.919,30.372-4.899,31.841,26.943
								c1.47,31.841-105.811,2.939-104.342-10.777c1.47-13.716,35.27-3.429,36.74-33.801c1.47-30.372,1.96-31.841,1.96-31.841
								L313.072,255.882z"/>
							<path style="fill:#E2887D;" d="M310.87,272.087c-0.822-7.65,2.202-16.205,2.202-16.205l-27.433-22.044
								c0,0,0,4.521-0.35,15.183C289.866,259.918,299.495,267.924,310.87,272.087z"/>
						</g>
						<path style="fill:#FFB199;" d="M303.275,172.589c0,0,46.537-13.566,46.537,44.574s-56.335,52.326-69.561,8.237
							C266.454,179.406,303.275,172.589,303.275,172.589z"/>
					</g>
				</g>
				<g>
					<g>
						<g>
							<path style="fill:#000A19;" d="M298.866,203.221c0,0,0.09-0.45,0.399-1.186c0.307-0.735,0.827-1.768,1.694-2.861
								c0.851-1.1,2.056-2.281,3.638-3.178c0.781-0.461,1.659-0.836,2.587-1.102c0.923-0.298,1.909-0.403,2.885-0.476
								c0.978-0.007,1.958,0.038,2.886,0.237c0.467,0.085,0.925,0.185,1.361,0.333c0.443,0.128,0.874,0.263,1.277,0.445
								c0.828,0.313,1.571,0.723,2.261,1.115c0.677,0.417,1.297,0.833,1.826,1.27c0.554,0.4,1.008,0.833,1.406,1.216
								c0.411,0.365,0.732,0.725,0.991,1.027c0.522,0.595,0.792,0.957,0.792,0.957s-0.432-0.162-1.138-0.486
								c-0.702-0.328-1.716-0.767-2.901-1.257c-0.589-0.257-1.246-0.474-1.919-0.725c-0.682-0.223-1.393-0.467-2.135-0.641
								c-0.736-0.2-1.503-0.341-2.273-0.439c-0.772-0.106-1.55-0.13-2.324-0.116c-0.769,0.049-1.539,0.113-2.278,0.295
								c-0.741,0.168-1.464,0.386-2.147,0.674c-1.376,0.549-2.592,1.322-3.619,2.05c-1.011,0.75-1.83,1.465-2.392,1.992
								C299.182,202.891,298.866,203.221,298.866,203.221z"/>
						</g>
						<g>
							<path style="fill:#000A19;" d="M330.708,201.506c0,0-0.003-0.352,0.102-0.949c0.101-0.598,0.317-1.438,0.732-2.405
								c0.429-0.956,1.06-2.05,2.054-3.038c0.485-0.501,1.079-0.96,1.751-1.34c0.663-0.398,1.445-0.655,2.238-0.811
								c0.803-0.152,1.623-0.116,2.396-0.001c0.764,0.147,1.482,0.391,2.108,0.71c0.635,0.308,1.178,0.692,1.667,1.068
								c0.47,0.399,0.896,0.784,1.237,1.184c0.362,0.38,0.635,0.774,0.876,1.118c0.254,0.331,0.433,0.655,0.577,0.921
								c0.292,0.528,0.427,0.847,0.427,0.847s-0.325-0.146-0.839-0.432c-0.512-0.286-1.24-0.688-2.089-1.111
								c-0.416-0.229-0.879-0.427-1.35-0.644c-0.479-0.194-0.974-0.392-1.481-0.535c-0.506-0.157-1.021-0.236-1.527-0.303
								c-0.505-0.011-1.007-0.041-1.493,0.071c-0.975,0.162-1.934,0.618-2.809,1.232c-0.88,0.603-1.663,1.343-2.335,2.007
								c-0.67,0.669-1.224,1.278-1.617,1.713C330.935,201.253,330.708,201.506,330.708,201.506z"/>
						</g>
						<g>
							<path style="fill:#000A19;" d="M333.647,207.875c0,0,0.161,0.292,0.443,0.803c0.278,0.499,0.676,1.212,1.153,2.067
								c0.242,0.418,0.511,0.865,0.799,1.321c0.287,0.458,0.616,0.922,0.959,1.366c0.333,0.462,0.746,0.85,1.143,1.195
								c0.414,0.299,0.83,0.569,1.222,0.566l0.147,0.03l0.009,0.002c-0.06,0.005,0.141-0.009-0.133,0.011l0.008-0.001l0.03-0.004
								l0.061-0.008l0.122-0.016c0.148-0.025,0.355-0.035,0.454-0.073c0.101-0.101,0.226-0.084,0.432-0.264
								c0.375-0.253,0.736-0.676,1.042-1.122c0.607-0.919,1.063-1.939,1.444-2.82c0.369-0.888,0.665-1.655,0.87-2.195
								c0.209-0.545,0.328-0.856,0.328-0.856s0.197,1.346-0.115,3.354c-0.156,1.003-0.425,2.177-1.04,3.391
								c-0.335,0.591-0.704,1.241-1.372,1.755c-0.182,0.126-0.286,0.265-0.541,0.375c-0.231,0.114-0.475,0.213-0.718,0.296
								c-0.209,0.059-0.336,0.058-0.508,0.09l-0.121,0.018l-0.061,0.009l-0.03,0.005l-0.008,0.001
								c-0.279,0.02-0.084,0.005-0.149,0.009l-0.021-0.002l-0.34-0.038c-0.938-0.075-1.672-0.582-2.247-1.073
								c-0.559-0.517-0.985-1.094-1.324-1.658c-0.365-0.557-0.615-1.134-0.839-1.677c-0.237-0.538-0.397-1.066-0.536-1.553
								c-0.283-0.971-0.419-1.8-0.489-2.383C333.652,208.212,333.647,207.875,333.647,207.875z"/>
						</g>
						<g>
							<path style="fill:#000A19;" d="M306.704,207.875c0,0,0.161,0.292,0.443,0.803c0.278,0.499,0.676,1.212,1.153,2.067
								c0.242,0.418,0.511,0.865,0.799,1.321c0.287,0.458,0.616,0.922,0.959,1.366c0.333,0.462,0.746,0.85,1.143,1.195
								c0.414,0.299,0.83,0.569,1.222,0.566l0.147,0.03l0.009,0.002c-0.06,0.005,0.141-0.009-0.134,0.011l0.008-0.001l0.031-0.004
								l0.061-0.008l0.122-0.016c0.148-0.025,0.355-0.035,0.454-0.073c0.101-0.101,0.226-0.084,0.432-0.264
								c0.375-0.253,0.736-0.676,1.042-1.122c0.607-0.919,1.063-1.939,1.444-2.82c0.369-0.888,0.665-1.655,0.87-2.195
								c0.209-0.545,0.328-0.856,0.328-0.856s0.197,1.346-0.115,3.354c-0.156,1.003-0.425,2.177-1.04,3.391
								c-0.335,0.591-0.704,1.241-1.372,1.755c-0.182,0.126-0.286,0.265-0.541,0.375c-0.231,0.114-0.475,0.213-0.718,0.296
								c-0.21,0.059-0.336,0.058-0.508,0.09l-0.121,0.018l-0.061,0.009l-0.03,0.005l-0.008,0.001
								c-0.279,0.02-0.083,0.005-0.149,0.009l-0.021-0.002l-0.339-0.038c-0.938-0.075-1.672-0.582-2.247-1.073
								c-0.559-0.517-0.985-1.094-1.324-1.658c-0.364-0.557-0.615-1.134-0.839-1.677c-0.237-0.538-0.397-1.066-0.536-1.553
								c-0.283-0.971-0.419-1.8-0.49-2.383C306.709,208.212,306.704,207.875,306.704,207.875z"/>
						</g>
						<g>
							<path style="fill:#FF8255;" d="M328.503,207.385c0.156,0.824,0.326,1.62,0.511,2.405c0.079,0.393,0.197,0.779,0.294,1.164
								c0.08,0.387,0.209,0.764,0.312,1.141c0.101,0.379,0.248,0.744,0.357,1.114c0.111,0.371,0.256,0.729,0.388,1.087
								c0.13,0.36,0.267,0.714,0.427,1.057c0.163,0.341,0.282,0.701,0.468,1.025l0.51,0.992l0.583,0.936
								c0.171,0.328,0.418,0.597,0.628,0.894c0.22,0.289,0.418,0.597,0.677,0.85c0.243,0.268,0.492,0.531,0.725,0.809l0.813,0.723
								c0.135,0.122,0.263,0.254,0.403,0.371l0.449,0.316l0.891,0.66l1.73,1.281l-1.647,0.892c-1.198,0.649-2.421,1.26-3.673,1.825
								c-0.616,0.299-1.265,0.545-1.897,0.818c-0.648,0.249-1.295,0.499-1.97,0.705c0.468-0.529,0.964-1.014,1.459-1.5
								c0.511-0.462,1.004-0.951,1.531-1.387c1.034-0.905,2.097-1.763,3.185-2.584l0.082,2.172l-1.168-0.635l-0.58-0.332
								c-0.185-0.124-0.359-0.264-0.539-0.397l-1.055-0.834c-0.319-0.314-0.623-0.645-0.932-0.97
								c-0.324-0.314-0.583-0.679-0.841-1.044c-0.251-0.368-0.544-0.713-0.743-1.111l-0.63-1.171
								c-0.176-0.404-0.331-0.816-0.495-1.223c-0.181-0.401-0.265-0.832-0.392-1.248c-0.13-0.415-0.222-0.838-0.289-1.265
								c-0.079-0.424-0.16-0.845-0.186-1.274c-0.039-0.426-0.09-0.849-0.08-1.277c-0.023-0.85,0.008-1.696,0.127-2.532
								C328.038,209.005,328.219,208.176,328.503,207.385z"/>
						</g>
					</g>
					<g>
						<path style="fill:#FF553C;" d="M313.072,234.817l24.983,0.49C338.056,235.307,329.973,252.208,313.072,234.817z"/>
						<path style="fill:#B2382B;" d="M313.072,234.817c0.588,0.605,1.162,1.159,1.728,1.682c4.876-0.65,9.723-0.159,13.212,3.703
							c0.594,0.658,1.193,1.385,1.752,2.159c5.571-1.389,8.291-7.055,8.291-7.055L313.072,234.817z"/>
					</g>
				</g>
			</g>
			<g>
				<g>
					<path style="fill:#E2887D;" d="M357.16,329.362c0,0-0.98,57.804,1.47,57.804c2.449,0,61.233,15.676,63.683,25.963
						c2.449,10.287,4.409,30.862-4.409,3.429c0,0,7.348,38.21-6.368-0.49c0,0-5.389,36.74-5.389-0.49c0,0-4.899,33.311-5.389,0.49
						c0,0-62.703-0.98-80.338-15.186c-17.635-14.206,12.247-79.358,12.247-79.358L357.16,329.362z"/>
					<g>
						<path style="fill:#FFA94D;" d="M338.056,334.75c0,0,13.716,1.47,22.534-1.96c0,0-0.421-43.604-21.554-47.027
							C318.998,282.518,338.056,334.75,338.056,334.75z"/>
						<path style="fill:#DD8D45;" d="M335.049,325.501c1.627,5.465,3.007,9.25,3.007,9.25s13.716,1.47,22.534-1.96
							c0,0-0.133-13.562-3.914-26.154C350.893,314.088,343.364,320.336,335.049,325.501z"/>
					</g>
				</g>
				<g>
					<path style="fill:#DD8D45;" d="M260.978,406.271c0,0-26.726,16.655-27.754,42.129H358.63c0,0-1.028-26.453-26.726-44.088
						C306.206,386.676,260.978,406.271,260.978,406.271z"/>
					<g>
						<path style="fill:#FFA94D;" d="M259.677,406.271c0,0-31.351-48.987-26.453-87.196c4.899-38.21,23.514-33.801,31.352-33.801
							c0,0,11.757,25.473,36.74,22.044c26.973-3.702,29.392-23.024,29.392-23.024s15.676-2.449,20.085,12.737
							c4.409,15.186,11.757,57.804-14.206,65.152l-5.878,29.882C330.708,392.065,306.704,415.578,259.677,406.271z"/>
						<path style="fill:#DD8D45;" d="M281.553,343.974c-11.102-5.714-21.13-13.244-30.706-21.208
							c-5.378-4.472-10.896-8.996-15.71-14.135c-0.763,3.07-1.411,6.53-1.913,10.443c-4.899,38.21,26.453,87.196,26.453,87.196
							c47.027,9.307,71.031-14.206,71.031-14.206l5.878-29.882c5.383-1.523,9.316-4.578,12.158-8.575
							C326.385,355.112,301.737,354.362,281.553,343.974z"/>
					</g>
				</g>
			</g>
			<g>
				<path style="fill:#001433;" d="M281.231,152.03c0,0,28.412-5.878,30.862,18.615c2.449,24.493-24.004,24.983-23.024,50.456
					c0.98,25.473,9.797,55.845-9.797,66.622s-38.21-14.696-46.047,33.801c0,0-17.145-27.433-3.429-45.558
					c13.716-18.125,20.574-39.189,20.085-76.909C249.39,161.337,271.434,155.459,281.231,152.03z"/>
				<g>
					<g>
						<path style="fill:none;stroke:#001433;stroke-width:0.9797;stroke-miterlimit:10;" d="M280.251,225.399
							c0,0,13.716,16.766,31.841,17.746"/>
						<path style="fill:#22689E;" d="M318.998,244.158c-0.302,1.754-1.969,2.931-3.723,2.629l-7.543-1.3
							c-1.754-0.302-2.931-1.969-2.629-3.723l0,0c0.302-1.754,1.969-2.931,3.723-2.629l7.543,1.3
							C318.123,240.737,319.3,242.404,318.998,244.158L318.998,244.158z"/>
					</g>
					<g>
						<g>
							<ellipse style="fill:#DD8D45;" cx="275.598" cy="212.528" rx="20.33" ry="22.289"/>
							<ellipse style="fill:#FFA94D;" cx="269.229" cy="212.528" rx="20.33" ry="22.289"/>
						</g>
						<g>
							<ellipse style="fill:#DD8D45;" cx="269.187" cy="212.773" rx="10.977" ry="12.035"/>
							<path style="fill:#DD8D45;" d="M266.045,212.283c0,0-0.98-41.149,21.064-55.845c24.759-16.506,45.068-0.98,45.068-0.98
								s-26.943-5.389-42.129,10.777c-15.186,16.166-17.145,42.618-17.145,42.618L266.045,212.283z"/>
						</g>
					</g>
				</g>
			</g>
			<g>
				<g>
					<path style="fill:#FFB199;" d="M278.292,334.26c0,0-2.449,54.375-3.429,67.112c0,0,66.622-12.736,75.44-7.838
						c8.818,4.899,32.331,49.477,8.818,19.105c0,0,20.574,37.23-5.389,1.96c0,0,12.737,31.841-5.878,0
						c0,0,12.247,27.432-6.858-2.449c0,0-79.848,33.311-91.605,25.963c-11.757-7.348-20.085-63.683-14.206-110.22
						C241.062,281.355,278.292,334.26,278.292,334.26z"/>
					<path style="fill:#E2887D;" d="M261.805,356.875c5.312,0.094,10.46-0.487,15.507-1.507c0.561-11.807,0.98-21.107,0.98-21.107
						s-37.23-52.906-43.108-6.368c-0.954,7.549-1.531,15.355-1.783,23.169C242.527,354.314,251.873,356.7,261.805,356.875z"/>
				</g>
				<path style="fill:#FFA94D;" d="M230.285,346.017c0,0-2.939-58.784,26.453-55.845c29.392,2.939,23.024,58.294,23.024,58.294
					S252.819,355.325,230.285,346.017z"/>
			</g>
		</g>
		<g>
			<path style="fill:#22689E;" d="M641.773,459.177c0,3.246-2.193,5.878-4.899,5.878H108.798c-2.705,0-4.899-2.632-4.899-5.878
				V447.42c0-3.247,2.193-5.878,4.899-5.878h528.077c2.706,0,4.899,2.632,4.899,5.878V459.177z"/>
			<g>
				<g>
					<path style="fill:#003154;" d="M589.892,391.575c0,2.706-2.193,4.899-4.899,4.899H404.722c-2.705,0-4.899-2.193-4.899-4.899
						V251.473c0-2.705,2.193-4.899,4.899-4.899h180.271c2.706,0,4.899,2.193,4.899,4.899V391.575z"/>
					<path style="fill:#001433;" d="M603.605,391.575c0,2.706-2.193,4.899-4.899,4.899H418.436c-2.705,0-4.899-2.193-4.899-4.899
						V251.473c0-2.705,2.193-4.899,4.899-4.899h180.271c2.706,0,4.899,2.193,4.899,4.899V391.575z"/>
					<path style="fill:#003154;" d="M523.023,435.663c0,2.705-2.193,4.899-4.899,4.899h-25.473c-2.706,0-4.899-2.193-4.899-4.899
						V330.831c0-2.705,2.193-4.899,4.899-4.899h25.473c2.705,0,4.899,2.193,4.899,4.899V435.663z"/>
					<path style="fill:#003154;" d="M564.662,436.643c0,2.706-2.193,4.899-4.899,4.899H451.012c-2.705,0-4.899-2.193-4.899-4.899
						v-0.98c0-2.706,2.193-4.899,4.899-4.899h108.751c2.706,0,4.899,2.193,4.899,4.899V436.643z"/>
					<path style="fill:#003154;" d="M523.023,435.663c0,2.705-2.193,4.899-4.899,4.899h-25.473c-2.706,0-4.899-2.193-4.899-4.899
						V330.831c0-2.705,2.193-4.899,4.899-4.899h25.473c2.705,0,4.899,2.193,4.899,4.899V435.663z"/>
				</g>
				<path style="fill:#003154;" d="M426.477,436.643c0,2.706-2.193,4.899-4.899,4.899H312.828c-2.705,0-4.899-2.193-4.899-4.899
					v-0.98c0-2.706,2.193-4.899,4.899-4.899h108.751c2.706,0,4.899,2.193,4.899,4.899V436.643z"/>
			</g>
		</g>
	</g>
	<g>
		<g>
			<path style="fill:#FF5640;" d="M473.005,99.627H362.951c-6.043,0-10.942,4.899-10.942,10.942v42.617
				c0,6.043,4.899,10.942,10.942,10.942h15.184v28.739l16.111-28.739h78.758c6.043,0,10.942-4.899,10.942-10.942v-42.617
				C483.947,104.526,479.048,99.627,473.005,99.627z"/>
			<g>
				<g style="opacity:0.25;">
					<circle cx="386.627" cy="132.777" r="7.185"/>
					<circle cx="419.938" cy="132.777" r="7.185"/>
					<circle cx="453.249" cy="132.777" r="7.185"/>
				</g>
				<g>
					<g>
						<circle style="fill:#FFFFFF;" cx="384.667" cy="130.817" r="7.185"/>
						<circle style="fill:#FFFFFF;" cx="417.978" cy="130.817" r="7.185"/>
						<circle style="fill:#FFFFFF;" cx="451.289" cy="130.817" r="7.185"/>
					</g>
				</g>
			</g>
		</g>
		<g>
			<path style="fill:#22689E;" d="M243.826,100.649l-5.931,4.611c3.496,4.523,7.767,8.254,12.693,11.088l3.749-6.516
				c4.118,2.368,8.635,3.878,13.272,4.483l-0.973,7.45c5.689,0.743,11.374,0.369,16.897-1.114l-1.947-7.256
				c4.451-1.194,8.745-3.267,12.621-6.258l4.619,5.924c4.512-3.488,8.236-7.746,11.066-12.656l-6.512-3.754
				c2.372-4.115,3.885-8.63,4.496-13.265l7.449,0.981c0.749-5.689,0.38-11.375-1.096-16.898l-7.257,1.94
				c-1.184-4.434-3.244-8.711-6.21-12.577l5.945-4.596l-0.079-0.103c-3.516-4.549-7.813-8.295-12.771-11.133l-3.734,6.523
				c-4.122-2.36-8.642-3.86-13.28-4.456l0.958-7.451c-5.691-0.732-11.376-0.346-16.896,1.148l1.963,7.255
				c-4.432,1.199-8.707,3.268-12.566,6.25l-4.602-5.937c-4.536,3.506-8.274,7.79-11.11,12.732l6.518,3.741
				c-2.364,4.12-3.869,8.638-4.47,13.275l-7.45-0.966c-0.738,5.691-0.358,11.375,1.13,16.896l7.257-1.955
				C238.768,92.497,240.84,96.781,243.826,100.649z M285.739,68.278c5.745,7.432,4.372,18.152-3.06,23.897
				c-7.432,5.745-18.153,4.372-23.897-3.06c-5.745-7.432-4.372-18.153,3.06-23.897C269.274,59.473,279.994,60.846,285.739,68.278z"
				/>
			<path style="fill:#FF6666;" d="M197.665,130.471l-2.639,4.801c3.648,2.019,7.586,3.283,11.704,3.757l0.627-5.446
				c3.442,0.396,6.903,0.101,10.183-0.833l1.501,5.27c4.025-1.147,7.723-3.04,10.993-5.629l-3.401-4.296
				c2.635-2.086,4.912-4.715,6.643-7.837l4.805,2.632c2.014-3.64,3.276-7.567,3.753-11.673l-5.446-0.632
				c0.399-3.441,0.108-6.902-0.823-10.182l5.272-1.496c-1.142-4.026-3.032-7.727-5.617-10.999l-4.299,3.396
				c-2.074-2.627-4.689-4.896-7.793-6.627l2.653-4.796l-0.083-0.046c-3.669-2.03-7.629-3.297-11.769-3.764l-0.616,5.447
				c-3.442-0.389-6.902-0.088-10.18,0.853l-1.511-5.266c-4.022,1.154-7.717,3.056-10.983,5.651l3.411,4.291
				c-2.621,2.083-4.886,4.704-6.609,7.816l-4.797-2.646c-2.024,3.659-3.29,7.608-3.76,11.736l5.446,0.622
				c-0.392,3.442-0.094,6.902,0.843,10.181l-5.268,1.506c1.15,4.024,3.048,7.721,5.639,10.988l4.294-3.406
				C191.923,126.474,194.548,128.745,197.665,130.471z M216.377,96.683c5.995,3.317,8.173,10.892,4.857,16.887
				c-3.317,5.995-10.892,8.173-16.887,4.857c-5.995-3.317-8.173-10.892-4.857-16.887C202.807,95.545,210.383,93.366,216.377,96.683z
				"/>
		</g>
		<g>
			<circle style="fill:#22689E;" cx="129.312" cy="195.426" r="54.212"/>
			<g>
				<g style="opacity:0.25;">
					<path d="M134.559,196.111c0.711-0.364,1.503-0.556,2.324-0.556c1.362,0,2.642,0.529,3.608,1.489l2.078-2.077
						c5.141,1.802,11.089,0.648,15.199-3.462c3.459-3.459,4.823-8.218,4.094-12.703c-0.08-0.493-0.43-0.902-0.906-1.055
						c-0.476-0.154-0.998-0.029-1.352,0.325l-3.085,3.085c-2.513,2.513-6.586,2.513-9.099,0c-2.511-2.513-2.511-6.586,0-9.099
						l3.086-3.084c0.354-0.355,0.48-0.877,0.326-1.353c-0.154-0.477-0.561-0.825-1.056-0.906c-4.486-0.728-9.244,0.635-12.702,4.094
						c-4.172,4.172-5.295,10.234-3.376,15.428l-4.506,4.506L134.559,196.111z"/>
					<path d="M126.347,204.278l-5.345-5.345l-18.69,18.69c-2.431,2.429-2.431,6.37,0,8.8c2.43,2.43,6.37,2.43,8.8,0l16.111-16.112
						C125.6,208.677,125.307,206.21,126.347,204.278z"/>
					<path d="M138.268,199.287c-0.383-0.383-0.883-0.574-1.385-0.574c-0.501,0-1.001,0.191-1.384,0.574l-1.116,1.115l-19.875-19.874
						l0.929-0.929c0.846-0.846,0.741-2.25-0.223-2.96l-8.109-5.972c-0.779-0.574-1.86-0.492-2.545,0.192l-3.443,3.443
						c-0.685,0.684-0.766,1.765-0.192,2.545l5.972,8.109c0.71,0.965,2.113,1.071,2.96,0.224l0.929-0.929l19.874,19.874l-1.194,1.195
						c-0.765,0.765-0.765,2.004,0,2.768l18.334,18.335c2.43,2.43,6.371,2.43,8.801,0c2.43-2.43,2.43-6.371,0-8.8L138.268,199.287z"
						/>
				</g>
				<g>
					<g>
						<path style="fill:#FFFFFF;" d="M132.599,194.152c0.711-0.364,1.503-0.556,2.325-0.556c1.362,0,2.642,0.53,3.608,1.489
							l2.078-2.077c5.141,1.802,11.089,0.648,15.2-3.462c3.459-3.459,4.823-8.218,4.094-12.703c-0.08-0.493-0.43-0.902-0.906-1.055
							c-0.476-0.154-0.998-0.029-1.352,0.325l-3.085,3.085c-2.513,2.513-6.586,2.513-9.099,0c-2.511-2.513-2.511-6.586,0-9.099
							l3.085-3.084c0.354-0.355,0.48-0.877,0.326-1.353c-0.154-0.477-0.561-0.825-1.056-0.906
							c-4.486-0.728-9.244,0.635-12.702,4.094c-4.172,4.172-5.295,10.234-3.376,15.428l-4.506,4.506L132.599,194.152z"/>
						<path style="fill:#FFFFFF;" d="M124.388,202.318l-5.345-5.345l-18.69,18.69c-2.431,2.429-2.431,6.37,0,8.8
							c2.43,2.43,6.37,2.43,8.8,0l16.112-16.112C123.64,206.717,123.347,204.251,124.388,202.318z"/>
						<path style="fill:#FFFFFF;" d="M136.309,197.328c-0.382-0.382-0.883-0.574-1.385-0.574c-0.501,0-1.001,0.191-1.384,0.574
							l-1.116,1.115l-19.875-19.874l0.929-0.929c0.846-0.846,0.741-2.25-0.223-2.96l-8.11-5.972
							c-0.779-0.574-1.86-0.492-2.545,0.192l-3.443,3.443c-0.685,0.684-0.766,1.765-0.192,2.545l5.972,8.109
							c0.71,0.965,2.113,1.071,2.96,0.224l0.929-0.929l19.874,19.874l-1.194,1.195c-0.765,0.765-0.765,2.004,0,2.768l18.334,18.335
							c2.43,2.43,6.371,2.43,8.801,0c2.43-2.43,2.43-6.371,0-8.8L136.309,197.328z"/>
					</g>
				</g>
			</g>
		</g>
		<g>
			<circle style="fill:#FFA94D;" cx="543.632" cy="179.561" r="52.253"/>
			<g>
				<g style="opacity:0.25;">
					<path d="M579.168,160.923l-20.731,20.598l20.731,20.598c0.375-0.783,0.602-1.649,0.602-2.574v-36.048
						C579.77,162.572,579.542,161.706,579.168,160.923z"/>
					<path d="M549.839,184.454l26.497-26.363c-0.783-0.375-1.649-0.602-2.574-0.602h-56.341c-0.925,0-1.791,0.227-2.574,0.602
						l26.497,26.363C543.687,186.797,547.496,186.797,549.839,184.454z"/>
					<path d="M512.015,160.923c-0.375,0.783-0.602,1.649-0.602,2.574v36.048c0,0.925,0.227,1.791,0.602,2.574l20.731-20.598
						L512.015,160.923z"/>
					<path d="M552.671,187.286c-3.904,3.904-10.256,3.904-14.159,0l-2.933-2.934l-20.731,20.598
						c0.783,0.375,1.649,0.602,2.574,0.602h56.341c0.925,0,1.791-0.227,2.574-0.602l-20.731-20.598L552.671,187.286z"/>
				</g>
				<g>
					<g>
						<path style="fill:#FFFFFF;" d="M577.208,158.963l-20.731,20.598l20.731,20.598c0.375-0.783,0.602-1.649,0.602-2.574v-36.048
							C577.81,160.612,577.583,159.747,577.208,158.963z"/>
						<path style="fill:#FFFFFF;" d="M547.88,182.495l26.497-26.363c-0.783-0.375-1.649-0.602-2.574-0.602h-56.341
							c-0.925,0-1.791,0.227-2.574,0.602l26.497,26.363C541.727,184.837,545.537,184.837,547.88,182.495z"/>
						<path style="fill:#FFFFFF;" d="M510.056,158.963c-0.375,0.783-0.602,1.649-0.602,2.574v36.048
							c0,0.925,0.227,1.791,0.602,2.574l20.731-20.598L510.056,158.963z"/>
						<path style="fill:#FFFFFF;" d="M550.712,185.326c-3.904,3.904-10.256,3.904-14.159,0l-2.934-2.934l-20.731,20.598
							c0.783,0.375,1.649,0.602,2.574,0.602h56.341c0.925,0,1.791-0.227,2.574-0.602l-20.731-20.598L550.712,185.326z"/>
					</g>
				</g>
			</g>
		</g>
		<g>
			<circle style="fill:#22689E;" cx="587.06" cy="78.843" r="37.556"/>
			<g>
				<g style="opacity:0.25;">
					<path d="M591.153,88.432l-8.859-0.712V76.892c0.254,0.147,0.821,0.3,1.696,0.465c0.874,0.165,1.64,0.247,2.296,0.247
						c1.495,0,2.779-0.392,3.856-1.177c1.075-0.783,1.613-1.813,1.613-3.089c0-1.204-0.394-2.216-1.177-3.035
						c-0.783-0.821-1.905-1.23-3.362-1.23c-1.422,0-2.517,0.429-3.282,1.284c-0.766,0.859-1.275,1.907-1.531,3.146l-6.727-2.735
						c0.182-2.078,0.894-3.983,2.134-5.714c1.24-1.731,2.844-3.109,4.811-4.13c1.969-1.019,4.083-1.531,6.344-1.531
						c2.588,0,4.904,0.674,6.945,2.023c2.043,1.351,3.627,3.118,4.76,5.305c1.128,2.187,1.693,4.484,1.693,6.892
						c0,2.624-0.656,4.849-1.967,6.671c-1.313,1.822-2.864,3.164-4.648,4.019c-1.787,0.857-3.356,1.268-4.704,1.23L591.153,88.432z
						 M582.621,100.435c-1.093-1.184-1.64-2.579-1.64-4.183c0-1.64,0.592-3.026,1.778-4.157c1.184-1.128,2.561-1.696,4.128-1.696
						c1.457,0,2.708,0.512,3.747,1.533c1.039,1.021,1.558,2.388,1.558,4.101c0,1.713-0.518,3.171-1.558,4.375
						c-1.039,1.204-2.361,1.805-3.965,1.805C585.065,102.212,583.716,101.618,582.621,100.435z"/>
				</g>
				<g>
					<g>
						<path style="fill:#FFFFFF;" d="M589.193,86.472l-8.858-0.712V74.933c0.254,0.147,0.821,0.3,1.696,0.465
							c0.875,0.165,1.64,0.247,2.296,0.247c1.495,0,2.779-0.392,3.856-1.177c1.075-0.783,1.613-1.814,1.613-3.089
							c0-1.204-0.394-2.216-1.177-3.035c-0.783-0.821-1.905-1.23-3.362-1.23c-1.422,0-2.517,0.43-3.282,1.284
							c-0.766,0.859-1.275,1.907-1.531,3.146l-6.727-2.735c0.182-2.078,0.895-3.983,2.134-5.714c1.239-1.731,2.844-3.109,4.811-4.13
							c1.969-1.019,4.083-1.531,6.344-1.531c2.588,0,4.904,0.674,6.945,2.023c2.043,1.351,3.627,3.118,4.76,5.305
							c1.128,2.187,1.693,4.484,1.693,6.891c0,2.623-0.656,4.849-1.967,6.671c-1.313,1.822-2.864,3.164-4.648,4.019
							c-1.787,0.857-3.356,1.268-4.704,1.23L589.193,86.472z M580.662,98.475c-1.093-1.184-1.64-2.579-1.64-4.183
							c0-1.64,0.592-3.026,1.778-4.157c1.184-1.128,2.561-1.696,4.128-1.696c1.458,0,2.708,0.512,3.747,1.533
							c1.039,1.021,1.558,2.388,1.558,4.101s-0.518,3.171-1.558,4.375c-1.039,1.204-2.361,1.805-3.965,1.805
							C583.105,100.253,581.757,99.659,580.662,98.475z"/>
					</g>
				</g>
			</g>
		</g>
		<g>
			<circle style="fill:#FF5640;" cx="656.235" cy="160.186" r="37.556"/>
			<g>
				<g style="opacity:0.25;">
					<path d="M654.167,172.878c-2.659,0-4.814,2.155-4.814,4.814c0,2.659,2.155,4.814,4.814,4.814c2.659,0,4.814-2.155,4.814-4.814
						C658.981,175.033,656.826,172.878,654.167,172.878L654.167,172.878z"/>
					<path d="M668.216,172.878c-2.659,0-4.814,2.155-4.814,4.814c0,2.659,2.155,4.814,4.814,4.814c2.659,0,4.814-2.155,4.814-4.814
						C673.03,175.033,670.874,172.878,668.216,172.878L668.216,172.878z"/>
					<path d="M676.419,167.966h-25.101l-0.491-2.849h20.631c0.607,0.002,1.153-0.369,1.375-0.933l4.912-12.379
						c0.298-0.757-0.073-1.613-0.831-1.911c-0.173-0.068-0.358-0.103-0.545-0.103h-28.097l-1.179-6.779
						c-0.121-0.717-0.747-1.238-1.474-1.228h-5.649c-0.814,0-1.474,0.66-1.474,1.474c0,0.814,0.66,1.474,1.474,1.474h4.421
						l4.224,24.954c0.121,0.717,0.747,1.238,1.474,1.228h26.329c0.814,0,1.474-0.66,1.474-1.474
						C677.893,168.626,677.233,167.966,676.419,167.966z"/>
				</g>
				<g>
					<g>
						<path style="fill:#FFFFFF;" d="M652.207,170.919c-2.659,0-4.814,2.155-4.814,4.814c0,2.659,2.155,4.814,4.814,4.814
							c2.659,0,4.814-2.155,4.814-4.814C657.021,173.074,654.866,170.919,652.207,170.919L652.207,170.919z"/>
						<path style="fill:#FFFFFF;" d="M666.256,170.919c-2.659,0-4.814,2.155-4.814,4.814c0,2.659,2.155,4.814,4.814,4.814
							c2.659,0,4.814-2.155,4.814-4.814C671.07,173.074,668.915,170.919,666.256,170.919L666.256,170.919z"/>
						<path style="fill:#FFFFFF;" d="M674.459,166.007h-25.101l-0.491-2.849h20.631c0.607,0.002,1.153-0.369,1.375-0.933
							l4.912-12.379c0.298-0.757-0.073-1.613-0.831-1.911c-0.173-0.068-0.358-0.103-0.545-0.103h-28.098l-1.179-6.779
							c-0.121-0.717-0.747-1.238-1.474-1.228h-5.649c-0.814,0-1.474,0.66-1.474,1.474c0,0.814,0.66,1.474,1.474,1.474h4.421
							l4.224,24.954c0.121,0.717,0.747,1.238,1.474,1.228h26.329c0.814,0,1.474-0.66,1.474-1.474S675.273,166.007,674.459,166.007z"
							/>
					</g>
				</g>
			</g>
		</g>
	</g>
</g>
</svg>
